<svg viewBox="0 0 200 200" xmlns="http://www.w3.org/2000/svg">
    <path fill="#FF0066"
        d="M41.3,-61C50.7,-66.2,53.4,-49.3,46.5,-35.5C39.6,-21.6,23.1,-10.8,20.2,-1.7C17.3,7.5,28,14.9,33.3,26C38.6,37.1,38.5,51.7,32,49.3C25.6,46.9,12.8,27.3,0.6,26.3C-11.6,25.3,-23.2,42.8,-30.9,45.9C-38.6,49.1,-42.5,37.9,-40.1,27.9C-37.8,17.8,-29.3,8.9,-34,-2.7C-38.7,-14.3,-56.5,-28.6,-54.9,-31.9C-53.3,-35.1,-32.3,-27.4,-19.9,-20.5C-7.6,-13.6,-3.8,-7.6,6.1,-18.2C16,-28.7,32,-55.9,41.3,-61Z"
        transform="translate(100 100)" />
</svg>